<svg xmlns:dc="http://purl.org/dc/elements/1.1/" xmlns:cc="http://creativecommons.org/ns#" xmlns:rdf="http://www.w3.org/1999/02/22-rdf-syntax-ns#" xmlns:svg="http://www.w3.org/2000/svg" xmlns="http://www.w3.org/2000/svg" xmlns:sodipodi="http://sodipodi.sourceforge.net/DTD/sodipodi-0.dtd" xmlns:inkscape="http://www.inkscape.org/namespaces/inkscape" version="1.1" x="0px" y="0px" viewBox="0 0 100 125"><g transform="translate(0,-952.36218)"><path style="text-indent:0;text-transform:none;direction:ltr;block-progression:tb;baseline-shift:baseline;color:#000000;enable-background:accumulate;" d="m 56.9375,982.33288 a 3.0003,3.0003 0 0 0 -2.7187,1.90625 l -14,34.00007 a 3.0060567,3.0060567 0 1 0 5.5625,2.2812 l 14,-34.00002 a 3.0003,3.0003 0 0 0 -2.8438,-4.1875 z m -21.1562,5.03125 a 3.0003,3.0003 0 0 0 -1.5938,0.625 l -16,12.00002 a 3.0003,3.0003 0 0 0 0,4.78125 l 16,12 a 3.0003,3.0003 0 1 0 3.625,-4.7812 l -12.8124,-9.5938 12.8124,-9.62505 a 3.0003,3.0003 0 0 0 -2.0312,-5.40622 z m 28.0625,0 a 3.0003,3.0003 0 0 0 -1.6563,5.40622 l 12.8126,9.62505 -12.8126,9.5938 a 3.0003,3.0003 0 1 0 3.625,4.7812 l 16,-12 a 3.0003,3.0003 0 0 0 0,-4.78125 l -16,-12.00002 a 3.0003,3.0003 0 0 0 -1.9687,-0.625 z" fill="#000000" fill-opacity="1" stroke="none" marker="none" visibility="visible" display="inline" overflow="visible"/></g><text x="0" y="115" fill="#000000" font-size="5px" font-weight="bold" font-family="'Helvetica Neue', Helvetica, Arial-Unicode, Arial, Sans-serif">Created by Three Six Five</text><text x="0" y="120" fill="#000000" font-size="5px" font-weight="bold" font-family="'Helvetica Neue', Helvetica, Arial-Unicode, Arial, Sans-serif">from the Noun Project</text></svg>